<?xml version="1.0" encoding="UTF-8" standalone="no"?>
<!-- Created with Inkscape (http://www.inkscape.org/) -->

<svg
   xmlns:dc="http://purl.org/dc/elements/1.1/"
   xmlns:cc="http://creativecommons.org/ns#"
   xmlns:rdf="http://www.w3.org/1999/02/22-rdf-syntax-ns#"
   xmlns:svg="http://www.w3.org/2000/svg"
   xmlns="http://www.w3.org/2000/svg"
   xmlns:sodipodi="http://sodipodi.sourceforge.net/DTD/sodipodi-0.dtd"
   xmlns:inkscape="http://www.inkscape.org/namespaces/inkscape"
   width="24"
   height="24"
   id="svg2"
   version="1.1"
   inkscape:version="0.47 r22583"
   sodipodi:docname="matelogo.svg">
  <defs
     id="defs4">
    <inkscape:perspective
       sodipodi:type="inkscape:persp3d"
       inkscape:vp_x="0 : 526.18109 : 1"
       inkscape:vp_y="0 : 1000 : 0"
       inkscape:vp_z="744.09448 : 526.18109 : 1"
       inkscape:persp3d-origin="372.04724 : 350.78739 : 1"
       id="perspective10" />
    <inkscape:perspective
       id="perspective2845"
       inkscape:persp3d-origin="0.5 : 0.33333333 : 1"
       inkscape:vp_z="1 : 0.5 : 1"
       inkscape:vp_y="0 : 1000 : 0"
       inkscape:vp_x="0 : 0.5 : 1"
       sodipodi:type="inkscape:persp3d" />
  </defs>
  <sodipodi:namedview
     id="base"
     pagecolor="#ffffff"
     bordercolor="#666666"
     borderopacity="1.0"
     inkscape:pageopacity="0.0"
     inkscape:pageshadow="2"
     inkscape:zoom="11.2"
     inkscape:cx="11.390593"
     inkscape:cy="14.979905"
     inkscape:document-units="px"
     inkscape:current-layer="layer1"
     showgrid="false"
     inkscape:window-width="1022"
     inkscape:window-height="680"
     inkscape:window-x="0"
     inkscape:window-y="0"
     inkscape:window-maximized="0" />
  <metadata
     id="metadata7">
    <rdf:RDF>
      <cc:Work
         rdf:about="">
        <dc:format>image/svg+xml</dc:format>
        <dc:type
           rdf:resource="http://purl.org/dc/dcmitype/StillImage" />
        <dc:title></dc:title>
      </cc:Work>
    </rdf:RDF>
  </metadata>
  <g
     inkscape:label="Layer 1"
     inkscape:groupmode="layer"
     id="layer1"
     transform="translate(-211.55529,-647.58054)">
    <g
       id="g2929"
       transform="matrix(0.08118905,0,0,0.08118905,194.37932,617.05556)">
      <path
         id="path2853"
         style="fill:#d9261c;fill-opacity:1;fill-rule:evenodd;stroke:none"
         d="m 358.86829,390.05168 c 74.172,0 134.66625,60.49387 134.66625,134.66587 0,74.1725 -60.49425,134.66625 -134.66625,134.66625 -74.17238,0 -134.66625,-60.49375 -134.66625,-134.66625 0,-74.172 60.49387,-134.66587 134.66625,-134.66587 z m -35.8455,4.45224 9.5545,-13.89725 12.44975,9.844 8.97525,-10.7125 7.52775,9.84375 14.47612,-10.7125 5.501,12.73925 15.0555,-8.68575 5.2115,14.18675 17.082,-4.34275 1.15788,11.581 14.47662,-4.6325 2.60575,14.766 13.31813,-3.764 -0.57925,14.766 15.0555,-2.02675 -0.8685,16.21338 17.082,-0.86838 -5.501,12.44938 11.58087,4.343 -3.76362,11.581 15.34462,4.0535 -8.97525,10.42262 14.76613,6.36975 -10.423,9.84375 13.02862,6.94875 -10.42287,6.65925 7.81725,7.5275 -10.13363,7.52775 9.84413,9.5545 -9.84413,7.52738 8.97525,10.423 -10.423,3.47462 7.52775,11.00188 -12.44937,3.47425 6.36937,11.87037 -11.58087,0.86888 4.05312,14.18675 -14.76562,2.60562 0.8685,15.34475 -11.8705,1.15825 0,14.18675 -11.87075,0 -2.60575,14.18663 -15.34463,-6.07988 -0.28987,17.08188 -14.18663,-6.08 -5.2115,13.31825 -15.34475,-9.55413 -7.52775,13.31826 -11.87075,-8.39663 -11.002,11.58125 -11.58087,-8.9755 -13.31825,8.39625 -9.26475,-10.42263 -11.87075,6.36938 -8.10675,-12.16025 -16.21338,4.0535 1.15825,-13.31825 -17.95075,3.47425 0.2895,-14.18663 -13.31825,5.2115 0,-16.503 -17.37137,-1.73725 5.2115,-10.423 -14.766,-2.31587 4.6325,-13.02875 -13.31825,-1.44788 5.7905,-12.44937 -13.02875,-3.47463 8.10675,-11.29137 -13.60775,-2.02675 8.39625,-8.39625 -10.42263,-5.501 8.68563,-9.84363 -10.423,-6.36987 10.1335,-6.36938 -12.16025,-8.68575 13.02875,-8.10675 -9.844,-10.1335 10.423,-3.18475 -5.7905,-9.844 7.81725,-2.31625 -5.501,-10.7125 10.423,-3.47412 -2.89525,-14.47625 11.2915,-0.57938 -4.343,-15.34462 14.766,-0.2895 0.579,-16.50288 12.15987,2.31588 1.44775,-13.60775 13.60775,1.15837 1.44775,-13.02875 12.739,4.6325 2.31625,-13.60775 13.60763,5.501 7.23837,-12.16025" />
      <path
         id="path2855"
         style="fill:#ffffff;fill-opacity:1;fill-rule:evenodd;stroke:none"
         d="m 359.35804,390.5588 c 74.17237,0 134.66612,60.49413 134.66612,134.66625 0,74.17237 -60.49375,134.66613 -134.66612,134.66613 -74.1725,0 -134.66625,-60.49375 -134.66625,-134.66613 0,-74.17212 60.49375,-134.66625 134.66625,-134.66625" />
      <path
         id="path2857"
         style="fill:#193882;fill-opacity:1;fill-rule:evenodd;stroke:none"
         d="m 489.69716,525.22505 c 0,71.62825 -58.6645,130.29237 -130.38562,130.29237 -71.62825,0 -130.29238,-58.66412 -130.29238,-130.29237 0,-71.628 58.66413,-130.292 130.29238,-130.292 71.72112,0 130.38562,58.664 130.38562,130.292 z m -6.249,0 c 0,42.24925 -21.358,79.83563 -53.9075,102.21938 -5.22287,-9.41988 -9.41987,-13.15063 -11.845,-23.87625 4.85013,-1.67875 7.18163,-2.14513 11.65825,-4.66325 2.14513,-1.119 4.10388,-3.07775 3.35763,-6.52863 -0.65275,-2.61137 0.37312,-5.78225 1.8655,-7.64787 1.772,-2.14513 2.51787,-4.1035 1.58537,-6.5285 -0.74625,-1.86525 -0.18637,-4.47663 1.67875,-5.40925 4.66338,-2.33188 1.67888,-6.90163 4.66338,-10.81875 2.51825,-3.2645 5.59587,-7.08838 2.14512,-10.72563 2.425,-10.3525 3.63713,-15.48212 6.06225,-25.83462 -0.74625,-0.27988 -1.11937,-0.46625 -1.86525,-0.74613 -2.425,10.16613 -3.73075,15.20213 -6.15575,26.20763 -4.01037,1.30575 -5.596,3.45087 -8.487,7.27487 -5.03637,6.80838 -11.565,10.7255 -20.61175,11.93775 0.18638,-5.40925 0.93263,-16.228 3.91713,-45.60662 l -1.02613,-0.18675 c -1.86512,13.8965 -2.70462,20.79812 -4.56975,34.60137 -6.8085,6.34225 -10.16612,9.5135 -16.97462,15.76213 -10.3525,-14.5495 -17.72038,-24.80888 -28.91225,-33.4825 3.17125,-9.23313 4.66325,-13.80325 7.36787,-22.29025 -3.8235,0.18637 -4.01025,9.4195 -7.741,11.93775 -1.49212,1.02612 -2.14512,2.89137 -2.23837,5.40962 -0.18638,3.17088 -0.2795,4.84963 -0.37313,8.02063 -0.2795,4.7565 -5.316,5.12962 -6.15537,1.02612 -0.93263,-4.19712 -1.39888,-6.249 -2.3315,-10.25925 -10.446,0.46625 -14.8295,-7.08812 -11.93813,-14.36287 4.197,1.49212 15.20225,2.70462 13.98975,-1.39925 -5.31612,0.18675 -13.05712,0.55987 -11.28512,-2.14513 1.30575,-1.30562 2.14512,-2.0515 3.82387,-3.63712 3.45088,1.02575 6.43538,0.74612 10.81888,1.2125 1.30562,4.38337 6.71525,1.492 9.2335,-3.07775 -6.34225,0 -10.81888,0.18637 -17.161,0.5595 -0.37313,-1.95875 -0.37313,-3.63763 0.5595,-5.596 -1.39888,0.28 -2.05188,0.46637 -3.45088,0.74625 -2.51812,1.21212 -3.07762,-0.74625 -2.3315,-3.45075 1.21225,-4.19713 0.74588,-7.92788 1.58538,-12.68438 0.653,-4.29025 4.47687,-3.824 6.15575,-1.119 3.45087,5.316 11.4715,4.94288 19.2125,0.37275 2.23837,-1.39887 4.197,-0.0931 5.22287,1.4925 1.77238,2.89125 4.01063,6.15538 1.49238,9.793 -2.05188,3.07763 -2.33175,6.5285 -0.5595,10.25888 7.55437,15.57562 21.54437,2.33187 12.684,-15.0155 23.13,-6.15575 36.18712,-8.86038 55.49312,-23.13 3.2645,-2.425 7.9275,-7.55463 -3.91712,-6.15538 -19.58588,2.3315 -31.15088,3.91713 -51.576,10.44563 -35.34763,11.28512 -56.51888,9.97937 -93.54538,6.06225 9.32625,-3.17088 13.8965,-4.7565 23.12963,-8.021 36.56012,1.4925 57.73175,-3.45075 88.88237,-11.565 -9.97937,0.28 -14.92262,0.46662 -24.99512,0.8395 -5.50275,-25.92788 -8.5805,-40.47738 -16.3215,-63.79375 63.51375,5.22287 113.69087,58.85075 113.69087,123.57712 z m -231.57887,61.6485 c -10.63238,-18.18675 -16.69463,-39.26475 -16.69463,-61.6485 0,-56.61212 38.51888,-104.73738 90.74763,-119.38013 -3.544,24.52888 -5.596,39.358 -4.84975,65.7525 -24.249,4.56975 -35.814,6.06225 -57.54513,12.49763 -9.97925,2.89087 -11.285,6.5285 -2.89125,8.67362 18.46663,4.56975 33.8555,4.197 55.02688,5.316 0.27987,2.51825 0.46625,3.73075 0.74612,6.1555 -15.01575,9.88613 3.07775,32.7365 9.60625,9.04713 3.54438,4.4765 5.0365,9.04675 3.91713,15.20212 -0.55938,2.89138 -3.264,6.8085 -7.741,4.29025 -2.70463,-1.58562 -6.5285,-2.70462 -9.97938,0 -4.1035,3.17088 -5.40925,4.56988 -9.97937,8.86 -5.316,4.75663 -11.565,4.01076 -18.46663,11.09875 -13.15025,13.52376 -19.58562,20.89175 -31.89687,34.13513 z m 65.28612,-79.55537 c -4.197,3.91712 -4.57012,8.30062 -3.17125,11.19187 1.02613,2.3315 3.824,3.26413 5.50275,1.58525 2.33188,-2.3315 3.07775,-4.84962 3.91713,-8.11412 -2.14513,-1.39888 -3.91713,-3.45088 -6.24863,-4.663 z m 21.63763,-10.53925 c -2.42513,-1.58563 -3.171,-3.544 -5.96913,-3.91713 -5.78225,-0.74612 -9.14,3.07775 -6.15537,8.48738 1.39887,2.70462 2.42462,4.197 5.12962,5.40912 2.14513,0.933 3.45075,1.11938 4.84975,-2.14512 1.30563,-3.07763 -1.30575,-6.5285 2.14513,-7.83425 z m 44.02125,9.2335 c 2.705,0 4.66337,-3.26438 6.52862,-5.969 2.70488,2.70462 2.70488,5.596 2.33175,9.41987 -0.46625,4.663 -6.34212,7.27475 -7.64787,4.47663 -1.30563,-2.79775 -1.39888,-5.22288 -1.2125,-7.9275 z m -39.63788,1.67887 c -0.93262,1.39888 -2.51825,2.3315 -4.01037,2.3315 -1.49238,0 0,-1.95875 0.74625,-3.07775 1.30575,-1.95875 1.95837,-2.70487 3.45087,-2.70487 1.49213,0 0.65263,2.33175 -0.18675,3.45112 z m 88.88238,15.20225 c 0,1.11887 -0.83938,1.95838 -1.8655,1.95838 -1.119,0 -1.95838,-0.83951 -1.95838,-1.95838 0,-1.02612 0.83938,-1.86563 1.95838,-1.86563 1.02612,0 1.8655,0.83951 1.8655,1.86563 z m 10.81887,-0.18675 c 0,1.11925 -0.8395,1.95875 -1.95875,1.95875 -1.02575,0 -1.86525,-0.8395 -1.86525,-1.95875 0,-1.02588 0.8395,-1.95838 1.86525,-1.95838 1.11925,0 1.95875,0.9325 1.95875,1.95838 z m -3.45087,7.741 c 0,0.74625 -0.653,1.30575 -1.39888,1.30575 -0.74625,0 -1.30575,-0.5595 -1.30575,-1.30575 0,-0.74588 0.5595,-1.39888 1.30575,-1.39888 0.74588,0 1.39888,0.653 1.39888,1.39888 z m -6.90163,-0.37275 c 0,0.65275 -0.653,1.30575 -1.39887,1.30575 -0.74625,0 -1.30613,-0.653 -1.30613,-1.30575 0,-0.74625 0.55988,-1.39925 1.30613,-1.39925 0.74587,0 1.39887,0.653 1.39887,1.39925 z m -7.74112,-1.39925 c 0,0.653 -0.55975,1.2125 -1.11925,1.2125 -0.65275,0 -1.2125,-0.5595 -1.2125,-1.2125 0,-0.65263 0.55975,-1.119 1.2125,-1.119 0.5595,0 1.11925,0.46638 1.11925,1.119 z m -1.39888,8.67375 c 0,0.74613 -0.55987,1.39925 -1.306,1.39925 -0.74587,0 -1.30575,-0.65312 -1.30575,-1.39925 0,-0.74587 0.55988,-1.30575 1.30575,-1.30575 0.74613,0 1.306,0.55988 1.306,1.30575 z m 8.86013,1.02612 c 0,0.9325 -0.74625,1.67876 -1.67888,1.67876 -1.02575,0 -1.772,-0.74625 -1.772,-1.67876 0,-1.02612 0.74625,-1.77199 1.772,-1.77199 0.93263,0 1.67888,0.74587 1.67888,1.77199 z m 4.84962,4.01026 c 0,0.65299 -0.65262,1.30575 -1.30562,1.30575 -0.74588,0 -1.399,-0.65276 -1.399,-1.30575 0,-0.74626 0.65312,-1.39888 1.399,-1.39888 0.653,0 1.30562,0.65262 1.30562,1.39888 z m -10.16575,0.93262 c 0,1.11938 -0.9325,1.95875 -1.95875,1.95875 -1.02575,0 -1.86512,-0.83937 -1.86512,-1.95875 0,-1.02575 0.83937,-1.86525 1.86512,-1.86525 1.02625,0 1.95875,0.8395 1.95875,1.86525 z m 5.31613,3.82387 c 0,0.83951 -0.65275,1.58563 -1.49213,1.58563 -0.83937,0 -1.58562,-0.74612 -1.58562,-1.58563 0,-0.83937 0.74625,-1.49199 1.58562,-1.49199 0.83938,0 1.49213,0.65262 1.49213,1.49199 z m -6.90175,2.89138 c 0,1.02575 -0.74613,1.772 -1.67875,1.772 -0.93263,0 -1.772,-0.74625 -1.772,-1.772 0,-0.93263 0.83937,-1.67875 1.772,-1.67875 0.93262,0 1.67875,0.74612 1.67875,1.67875 z m 5.96912,4.01037 c 0,0.9325 -0.65312,1.58563 -1.4925,1.58563 -0.93262,0 -1.58525,-0.65312 -1.58525,-1.58563 0,-0.83949 0.65263,-1.49212 1.58525,-1.49212 0.83938,0 1.4925,0.65263 1.4925,1.49212 z m -5.78237,4.84963 c 0,0.65312 -0.46663,1.11938 -1.11925,1.11938 -0.65313,0 -1.11938,-0.46625 -1.11938,-1.11938 0,-0.65263 0.46625,-1.11887 1.11938,-1.11887 0.65262,0 1.11925,0.46624 1.11925,1.11887 z m -41.78338,33.85563 c -0.5595,9.04675 0,15.20225 1.02613,24.62212 0.37312,4.10388 3.45087,4.94325 5.96912,1.02613 2.0515,-3.2645 2.891,-5.03651 5.12963,-8.11413 1.772,-2.33187 3.07775,-5.68913 7.55425,-6.15587 9.60637,-0.9325 17.161,-3.82351 24.249,-6.5285 2.9845,-1.119 3.2645,-3.63725 2.51825,-6.90163 -0.83938,-3.35737 -2.51825,-4.66338 -4.29025,-7.74112 -1.39888,-2.61138 0.37312,-5.03613 2.14512,-6.15538 8.30088,-5.22288 11.19188,-12.31125 16.13513,-19.95875 3.35775,-5.12963 -2.9845,-4.19713 -4.38338,-3.07775 -3.07775,2.42475 -4.38375,4.663 -6.71525,7.83425 -1.58562,2.14512 -3.91712,3.35763 -6.52862,5.596 -6.62163,2.3315 -9.88613,3.45075 -16.41463,5.78225 -0.74625,0.28 -1.4925,-1.58562 -0.74625,-1.95837 1.02575,-0.46625 2.3315,0 2.51825,-1.11925 0.27988,-2.70463 0.46625,-4.10388 0.74613,-6.71538 0.0933,-1.11887 -1.67875,-1.95837 -2.51813,-1.21212 -4.66337,4.38337 -6.90175,6.62175 -11.565,11.00512 -1.86525,1.772 -2.51825,2.89138 -4.01037,5.0365 -4.29025,5.8755 -6.43538,8.86 -10.81913,14.73588" />
      <path
         id="path2859"
         style="fill:none;stroke:#1f1917;stroke-width:3.32557178;stroke-linecap:butt;stroke-linejoin:miter;stroke-miterlimit:10;stroke-opacity:1;stroke-dasharray:none"
         d="m 359.04654,389.67368 c 74.49162,0 135.24762,60.75562 135.24762,135.24762 0,74.492 -60.756,135.24775 -135.24762,135.24775 -74.492,0 -135.248,-60.75575 -135.248,-135.24775 0,-74.492 60.756,-135.24762 135.248,-135.24762 z" />
    </g>
  </g>
</svg>
