<?xml version="1.0" encoding="UTF-8" standalone="no"?>
<!-- Created with Inkscape (http://www.inkscape.org/) -->

<svg
   xmlns:dc="http://purl.org/dc/elements/1.1/"
   xmlns:cc="http://creativecommons.org/ns#"
   xmlns:rdf="http://www.w3.org/1999/02/22-rdf-syntax-ns#"
   xmlns:svg="http://www.w3.org/2000/svg"
   xmlns="http://www.w3.org/2000/svg"
   xmlns:sodipodi="http://sodipodi.sourceforge.net/DTD/sodipodi-0.dtd"
   xmlns:inkscape="http://www.inkscape.org/namespaces/inkscape"
   width="32"
   height="40"
   id="svg2"
   version="1.1"
   inkscape:version="0.47 r22583"
   sodipodi:docname="icon_afri-cola-served_32x40_-12x-28.svg"
   inkscape:export-filename="/home/tanjeff/matekate/icon_afri-cola-served_32x40_-12x-28.png"
   inkscape:export-xdpi="91.693832"
   inkscape:export-ydpi="91.693832">
  <defs
     id="defs4">
    <inkscape:perspective
       sodipodi:type="inkscape:persp3d"
       inkscape:vp_x="0 : 526.18109 : 1"
       inkscape:vp_y="0 : 1000 : 0"
       inkscape:vp_z="744.09448 : 526.18109 : 1"
       inkscape:persp3d-origin="372.04724 : 350.78739 : 1"
       id="perspective10" />
    <inkscape:perspective
       id="perspective2845"
       inkscape:persp3d-origin="0.5 : 0.33333333 : 1"
       inkscape:vp_z="1 : 0.5 : 1"
       inkscape:vp_y="0 : 1000 : 0"
       inkscape:vp_x="0 : 0.5 : 1"
       sodipodi:type="inkscape:persp3d" />
    <marker
       viewBox="0 0 10 10"
       refY="5"
       refX="10"
       orient="auto"
       markerWidth="4"
       markerUnits="strokeWidth"
       markerHeight="3"
       id="ArrowStart">
      <path
         style="font-size:12px"
         id="path607"
         d="M 10,0 0,5 10,10 10,0 z" />
    </marker>
    <marker
       viewBox="0 0 10 10"
       refY="5"
       refX="0"
       orient="auto"
       markerWidth="4"
       markerUnits="strokeWidth"
       markerHeight="3"
       id="ArrowEnd">
      <path
         style="font-size:12px"
         id="path605"
         d="M 0,0 10,5 0,10 0,0 z" />
    </marker>
    <inkscape:perspective
       id="perspective19"
       inkscape:persp3d-origin="62.5 : 41.666667 : 1"
       inkscape:vp_z="125 : 62.5 : 1"
       inkscape:vp_y="0 : 1000 : 0"
       inkscape:vp_x="0 : 62.5 : 1"
       sodipodi:type="inkscape:persp3d" />
    <marker
       viewBox="0 0 10 10"
       refY="5"
       refX="10"
       orient="auto"
       markerWidth="4"
       markerUnits="strokeWidth"
       markerHeight="3"
       id="ArrowStart-6">
      <path
         id="path2480"
         d="M 10,0 0,5 10,10 z" />
    </marker>
    <marker
       viewBox="0 0 10 10"
       refY="5"
       refX="0"
       orient="auto"
       markerWidth="4"
       markerUnits="strokeWidth"
       markerHeight="3"
       id="ArrowEnd-0">
      <path
         id="path2477"
         d="M 0,0 10,5 0,10 z" />
    </marker>
    <inkscape:perspective
       id="perspective16"
       inkscape:persp3d-origin="181.242 : 121.08967 : 1"
       inkscape:vp_z="362.48401 : 181.63451 : 1"
       inkscape:vp_y="0 : 1000 : 0"
       inkscape:vp_x="0 : 181.63451 : 1"
       sodipodi:type="inkscape:persp3d" />
    <inkscape:perspective
       id="perspective4545"
       inkscape:persp3d-origin="0.5 : 0.33333333 : 1"
       inkscape:vp_z="1 : 0.5 : 1"
       inkscape:vp_y="0 : 1000 : 0"
       inkscape:vp_x="0 : 0.5 : 1"
       sodipodi:type="inkscape:persp3d" />
  </defs>
  <sodipodi:namedview
     id="base"
     pagecolor="#ffffff"
     bordercolor="#666666"
     borderopacity="1.0"
     inkscape:pageopacity="0.0"
     inkscape:pageshadow="2"
     inkscape:zoom="7.919596"
     inkscape:cx="0.92042349"
     inkscape:cy="14.651562"
     inkscape:document-units="px"
     inkscape:current-layer="g632"
     showgrid="false"
     inkscape:window-width="1022"
     inkscape:window-height="658"
     inkscape:window-x="0"
     inkscape:window-y="0"
     inkscape:window-maximized="0" />
  <metadata
     id="metadata7">
    <rdf:RDF>
      <cc:Work
         rdf:about="">
        <dc:format>image/svg+xml</dc:format>
        <dc:type
           rdf:resource="http://purl.org/dc/dcmitype/StillImage" />
        <dc:title></dc:title>
      </cc:Work>
    </rdf:RDF>
  </metadata>
  <g
     inkscape:label="Layer 1"
     inkscape:groupmode="layer"
     id="layer1"
     transform="translate(-211.55529,-631.58055)">
    <g
       transform="matrix(0.19663104,0,0,0.19663104,127.38912,589.61266)"
       style="font-size:12px"
       id="g632">
      <path
         style="fill:#ffffff;stroke:#000000;stroke-width:5.07041003999999962;stroke-miterlimit:4;stroke-dasharray:none;fill-opacity:1"
         id="path633"
         d="m 505.241,245.241 c 0,0 80,0 80,0 0,0 -20,80 -20,80 0,0 -40,0 -40,0 0,0 -20,-80 -20,-80 z" />
      <path
         style="fill:#ffffff;stroke:#000000"
         id="path634"
         d="m 540.857,261.225 c 0,-3.689 -2.994,-6.682 -6.682,-6.682 -3.688,0 -6.682,2.993 -6.682,6.682 0,3.688 2.994,6.682 6.682,6.682 3.688,0 6.682,-2.994 6.682,-6.682 z" />
      <path
         style="fill:#ffffff;stroke:#000000"
         id="path635"
         d="m 557.305,272.276 c 0,-2.412 -1.958,-4.369 -4.369,-4.369 -2.412,0 -4.369,1.957 -4.369,4.369 0,2.411 1.957,4.369 4.369,4.369 2.411,0 4.369,-1.958 4.369,-4.369 z" />
      <path
         style="fill:#ffffff;stroke:#000000"
         id="path636"
         d="m 543.17,286.026 c 0,-2.057 -1.669,-3.727 -3.726,-3.727 -2.057,0 -3.727,1.67 -3.727,3.727 0,2.057 1.67,3.726 3.727,3.726 2.057,0 3.726,-1.669 3.726,-3.726 z" />
      <path
         style="fill:#ffffff;stroke:#000000"
         id="path637"
         d="m 562.188,234.624 c 0,-2.908 -2.36,-5.269 -5.268,-5.269 -2.908,0 -5.269,2.361 -5.269,5.269 0,2.908 2.361,5.268 5.269,5.268 2.908,0 5.268,-2.36 5.268,-5.268 z" />
      <path
         style="fill:#ffffff;stroke:#000000"
         id="path638"
         d="m 538.287,231.283 c 0,-1.632 -1.324,-2.956 -2.955,-2.956 -1.632,0 -2.956,1.324 -2.956,2.956 0,1.631 1.324,2.955 2.956,2.955 1.631,0 2.955,-1.324 2.955,-2.955 z" />
      <path
         style="fill:#ffffff;stroke:#000000"
         id="path639"
         d="m 546.768,218.561 c 0,-1.419 -1.152,-2.57 -2.57,-2.57 -1.419,0 -2.57,1.151 -2.57,2.57 0,1.418 1.151,2.57 2.57,2.57 1.418,0 2.57,-1.152 2.57,-2.57 z" />
    </g>
    <g
       id="g3709"
       transform="matrix(0.46818178,0,0,0.46818178,144.597,338.61376)"
       inkscape:export-filename="/home/tanjeff/matekate/icon_afri-cola_24x24_-12x-12.png"
       inkscape:export-xdpi="92.639999"
       inkscape:export-ydpi="92.639999">
      <path
         transform="matrix(0.45743219,0,0,0.45743219,228.18355,659.08166)"
         d="m -74.451069,57.906063 c 0,30.77317 -24.946583,55.719757 -55.719751,55.719757 -30.77317,0 -55.71976,-24.946587 -55.71976,-55.719757 0,-30.77317 24.94659,-55.7197532 55.71976,-55.7197532 30.773168,0 55.719751,24.9465832 55.719751,55.7197532 z"
         sodipodi:ry="55.719753"
         sodipodi:rx="55.719753"
         sodipodi:cy="57.906063"
         sodipodi:cx="-130.17082"
         id="path2935"
         style="fill:#231f20;fill-opacity:1;stroke:#ffffff;stroke-width:0.43399999;stroke-linecap:butt;stroke-linejoin:miter;stroke-miterlimit:4;stroke-opacity:1;stroke-dasharray:none"
         sodipodi:type="arc" />
      <path
         id="path2855-8"
         style="fill:#ffffff;fill-opacity:1;fill-rule:nonzero;stroke:none"
         d="m 155.85911,687.02184 0,-0.0969 c 0,-1.78205 2.44716,-3.15744 3.91937,-4.06768 0.006,-0.003 -0.006,-3.70462 0,-5.43856 0.002,-0.38417 -0.19849,-0.49042 -0.53593,-0.48903 -0.33087,-10e-4 -0.53593,0.10175 -0.53273,0.48903 l 0,5.02671 -2.85071,0 0,-5.52544 c -0.0178,-1.81752 1.34622,-2.60524 3.39642,-2.61329 1.96937,-0.006 3.71275,0.79577 3.70955,2.61329 l 0,10.10188 0,10.70373 -3.1866,0 0,-0.72473 c 0.002,-0.002 -0.85071,0.75692 -2.0566,0.72611 -1.05568,-0.0273 -1.86606,-0.7891 -1.86277,-1.55605 l 0,-9.14906 0,0 m 3.91937,0 0,-1.21896 c 0.002,0 -0.93464,0.4392 -1.05568,1.21896 -0.008,0.0498 -0.013,0.10002 -0.013,0.15332 l 0,7.29468 c 0,0.38555 0.22764,0.47761 0.53437,0.47761 0.28735,0 0.53273,-0.0889 0.53429,-0.47761 l 0,-7.448 0,0 m 4.88005,0 0.002,-10.09703 -0.98309,0.002 0,-2.62151 0.97824,0 -0.0113,-8.01776 c 0.029,-1.81917 1.76276,-2.61009 3.724,-2.61009 2.07606,0 3.41892,0.79092 3.43692,2.59399 l 0,6.06128 -2.89614,0 0.002,-5.5738 c 0,-0.38261 -0.20178,-0.47778 -0.53758,-0.47778 -0.32775,0 -0.53437,0.0952 -0.53272,0.47934 l -0.002,7.54482 0.98162,0 0,2.62151 -0.98162,0 0,10.0953 0,10.70373 -3.15502,0 -0.0251,-10.70373 0,0 m 4.93664,0 0,-12.71516 3.18478,0.003 0,0.5715 c 0,0 0.98326,-0.8007 2.6556,-0.53282 0.36963,0.0581 1.26222,0.68449 1.26879,2.08895 l 0,7.85294 -2.84907,-10e-4 0,-6.88144 c 0,-0.38901 -0.20662,-0.47796 -0.52468,-0.47796 -0.32118,-10e-4 -0.55202,0.089 -0.55202,0.47796 0,2.84907 0,6.33738 -0.002,9.61422 l -0.003,10.70373 -3.17856,0 0,-10.70373 0,0 m 7.8166,-18.23246 3.1834,0 0,3.58184 -3.1834,0 0,-3.58184 0,0 m 0,18.23246 0,-12.7168 3.1834,0 0,12.7168 0,10.76188 -3.1834,0 0,-10.76188 0,0 z" />
      <path
         id="path2857-0"
         style="fill:#ffffff;fill-opacity:1;fill-rule:evenodd;stroke:none"
         d="m 159.77848,687.02184 3.1866,0 0,10.70373 -3.1866,0 0,-0.72473 c 0.002,-0.002 -0.85071,0.75692 -2.0566,0.72611 -1.05568,-0.0273 -1.86606,-0.7891 -1.86277,-1.55605 l 0,-9.14906 2.86369,0 c -0.008,0.0498 -0.013,0.10002 -0.013,0.15332 l 0,7.29468 c 0,0.38555 0.22764,0.47761 0.53437,0.47761 0.28735,0 0.53273,-0.0889 0.53429,-0.47761 l 0,-7.448 0,0 0,0 z" />
      <path
         id="path2859-7"
         style="fill:#ffffff;fill-opacity:1;fill-rule:evenodd;stroke:none"
         d="m 155.85911,687.02184 0,-0.0969 c 0,-1.78205 2.44716,-3.15744 3.91937,-4.06768 0.006,-0.003 -0.006,-3.70462 0,-5.43856 0.002,-0.38417 -0.19849,-0.49042 -0.53593,-0.48903 -0.33087,-10e-4 -0.53593,0.10175 -0.53273,0.48903 l 0,5.02671 -2.85071,0 0,-5.52544 c -0.0178,-1.81752 1.34622,-2.60524 3.39642,-2.61329 1.96937,-0.006 3.71275,0.79577 3.70955,2.61329 l 0,10.10188 -3.1866,0 0,-1.21896 c 0.002,0 -0.93464,0.4392 -1.05568,1.21896 l -2.86369,0 0,0 0,0 z" />
      <path
         id="path2861"
         style="fill:#ffffff;fill-opacity:1;fill-rule:evenodd;stroke:none"
         d="m 167.83864,687.02184 0,10.70373 -3.15502,0 -0.0251,-10.70373 3.18011,0 0,0 0,0 z" />
      <path
         id="path2863"
         style="fill:#ffffff;fill-opacity:1;fill-rule:evenodd;stroke:none"
         d="m 164.65853,687.02184 0.002,-10.09703 -0.98308,0.002 0,-2.62151 0.97824,0 -0.0113,-8.01776 c 0.029,-1.81917 1.76276,-2.61009 3.72401,-2.61009 2.07606,0 3.41891,0.79092 3.43691,2.59399 l 0,6.06128 -2.89614,0 0.002,-5.5738 c 0,-0.38261 -0.20177,-0.47778 -0.53757,-0.47778 -0.32775,0 -0.53438,0.0952 -0.53273,0.47934 l -0.002,7.54482 0.98162,0 0,2.62151 -0.98162,0 0,10.0953 -3.18011,0 0,0 0,0 z" />
      <path
         id="path2865"
         style="fill:#ffffff;fill-opacity:1;fill-rule:evenodd;stroke:none"
         d="m 172.77683,687.02184 c -0.002,5.66906 -0.003,10.70373 -0.003,10.70373 l -3.17856,0 0,-10.70373 3.18167,0 0,0 0,0 z" />
      <path
         id="path2867"
         style="fill:#ffffff;fill-opacity:1;fill-rule:evenodd;stroke:none"
         d="m 169.59517,687.02184 0,-12.71517 3.18478,0.003 0,0.57149 c 0,0 0.98326,-0.80069 2.6556,-0.53281 0.36963,0.0581 1.26221,0.68449 1.26879,2.08895 l 0,7.85294 -2.84907,-0.001 c 0,-0.002 0,-4.34075 0,-6.88144 0,-0.38902 -0.20662,-0.47796 -0.52468,-0.47796 -0.32118,-10e-4 -0.55203,0.0889 -0.55203,0.47796 0,2.84906 0,6.33737 -0.002,9.61422 l -3.18167,0 0,0 0,0 z" />
      <path
         id="path2869"
         style="fill:#ffffff;fill-opacity:1;fill-rule:evenodd;stroke:none"
         d="m 180.59516,687.02184 0,10.76188 -3.1834,0 0,-10.76188 3.1834,0 0,0 0,0 z" />
      <path
         id="path2871"
         style="fill:#ffffff;fill-opacity:1;fill-rule:evenodd;stroke:none"
         d="m 177.41176,668.78937 3.1834,0 0,3.58184 -3.1834,0 0,-3.58184 0,0 0,0 z" />
      <path
         id="path2873"
         style="fill:#ffffff;fill-opacity:1;fill-rule:evenodd;stroke:none"
         d="m 177.41176,687.02184 0,-12.71681 3.1834,0 0,12.71681 -3.1834,0 0,0 0,0 z" />
      <path
         id="path2879"
         style="fill:#ffffff;fill-opacity:1;fill-rule:evenodd;stroke:none"
         d="m 182.95796,676.56418 0.31253,0 0,-0.71677 0.25853,0 0.46446,0.71677 0.33537,0 -0.49838,-0.75207 c 0.16994,-0.0506 0.39905,-0.17322 0.39905,-0.46628 0,-0.13403 -0.0519,-0.25516 -0.15886,-0.33961 -0.11075,-0.0897 -0.27549,-0.14743 -0.61224,-0.14743 l -0.50046,0 0,1.70539 0,0 m 0.31253,-1.49652 0.18343,0 c 0.24919,0 0.44716,0.0586 0.44716,0.29504 0,0.17937 -0.13256,0.29341 -0.3686,0.29341 l -0.26199,0 0,-0.58845 0,0 m 0.26615,-0.79179 c -0.81714,0 -1.46088,0.63907 -1.46088,1.44807 0,0.81047 0.64374,1.44971 1.46088,1.44971 0.81713,0 1.46087,-0.63924 1.46087,-1.44971 0,-0.809 -0.64374,-1.44807 -1.45603,-1.44807 l -0.005,0 0,0 m 0.005,0.21259 c 0.68666,0 1.22588,0.54398 1.22588,1.23548 0,0.69315 -0.53749,1.23721 -1.22588,1.23721 -0.687,0 -1.22622,-0.54406 -1.22622,-1.23721 0,-0.6915 0.53922,-1.23548 1.22138,-1.23548 l 0.005,0 0,0 z" />
      <path
         id="path2883"
         style="fill:#ffffff;fill-opacity:1;fill-rule:nonzero;stroke:none"
         d="m 161.88309,700.68401 -2.01212,0 c -0.0234,-0.23812 -0.14579,-0.38556 -0.36046,-0.48281 -0.17772,-0.0838 -0.44603,-0.11906 -0.69245,-0.11732 -0.86022,-0.002 -1.15865,0.43227 -1.16029,0.94207 0.002,0.58698 0.38555,0.96423 1.14515,0.96423 0.53827,0 0.93731,-0.14087 1.06805,-0.63544 l 2.01212,0 c -0.19788,1.58443 -1.76561,1.76544 -3.08856,1.76717 -1.76562,-0.002 -3.14888,-0.48972 -3.14888,-2.07589 0,-1.56435 1.38326,-2.052 3.14888,-2.052 1.80757,0 2.88238,0.41739 3.08856,1.68999 l 0,0 m 3.38206,0.37067 c 0.002,0.61362 0.33191,0.9355 1.0999,0.9355 0.77629,0 1.09825,-0.32188 1.09825,-0.9355 0,-0.60221 -0.32196,-0.93066 -1.09825,-0.92893 -0.76799,-0.002 -1.09826,0.32672 -1.0999,0.92893 l 0,0 m -2.01221,0 c 0,-1.40516 0.94571,-2.06066 3.11211,-2.06066 2.16621,0 3.11175,0.6555 3.11037,2.06066 10e-4,1.40999 -0.94416,2.0655 -3.11037,2.06723 -2.1664,-0.002 -3.11211,-0.65724 -3.11211,-2.06723 l 0,0 m 7.83702,-2.37769 1.92153,0 0,4.36947 -1.92153,0 0,-4.36947 0,0 m 5.71613,1.62977 -1.9198,0 c 0.1156,-0.52468 0.35372,-0.84517 0.82821,-1.04798 0.46966,-0.19624 1.16877,-0.26476 2.18318,-0.26476 1.95822,0 2.73451,0.39731 2.73451,1.53563 l 0,1.84435 c 0,0.29349 0.0858,0.46792 0.17616,0.59355 l -1.96686,0 c -0.0367,-0.11213 -0.0602,-0.23811 -0.0685,-0.37724 -0.42951,0.36236 -1.08328,0.52987 -2.10427,0.5316 -1.29128,-0.002 -2.106,-0.31529 -2.106,-1.29267 0,-0.69912 0.54649,-1.14523 1.96653,-1.20061 l 1.62146,-0.0703 c 0.38417,-0.0218 0.51499,-0.1059 0.51499,-0.31529 0,-0.25161 -0.34575,-0.37067 -0.89224,-0.36894 -0.43573,-0.002 -0.87528,0.062 -0.96734,0.43262 l 0,0 m 1.90457,1.08986 0,-0.16786 c -0.32187,0.0623 -0.86662,0.10418 -1.55086,0.16128 -0.35371,0.0267 -0.52156,0.13048 -0.52295,0.3769 0.001,0.26511 0.2395,0.43262 0.714,0.43262 0.6472,0 1.36154,-0.14743 1.35981,-0.80294 l 0,0 z" />
      <path
         id="path2885"
         style="fill:#ffffff;fill-opacity:1;fill-rule:evenodd;stroke:none"
         d="m 161.88309,700.68401 -2.01212,0 c -0.0234,-0.23812 -0.14579,-0.38556 -0.36046,-0.48281 -0.17772,-0.0838 -0.44603,-0.11906 -0.69245,-0.11732 -0.86022,-0.002 -1.15865,0.43227 -1.16029,0.94207 0.002,0.58698 0.38555,0.96423 1.14515,0.96423 0.53827,0 0.93731,-0.14087 1.06805,-0.63544 l 2.01212,0 c -0.19788,1.58443 -1.76561,1.76544 -3.08856,1.76717 -1.76562,-0.002 -3.14888,-0.48972 -3.14888,-2.07589 0,-1.56435 1.38326,-2.052 3.14888,-2.052 1.80757,0 2.88238,0.41739 3.08856,1.68999 l 0,0 0,0 z" />
      <path
         id="path2887"
         style="fill:#ffffff;fill-opacity:1;fill-rule:evenodd;stroke:none"
         d="m 165.26515,701.05468 c 0.002,0.61362 0.33191,0.9355 1.0999,0.9355 0.77629,0 1.09825,-0.32188 1.09825,-0.9355 0,-0.60221 -0.32196,-0.93066 -1.09825,-0.92893 -0.76799,-0.002 -1.09826,0.32672 -1.0999,0.92893 l 0,0 0,0 m -2.01221,0 c 0,-1.40516 0.94571,-2.06066 3.11211,-2.06066 2.16621,0 3.11175,0.6555 3.11037,2.06066 10e-4,1.40999 -0.94416,2.0655 -3.11037,2.06723 -2.1664,-0.002 -3.11211,-0.65724 -3.11211,-2.06723 l 0,0 0,0 z" />
      <path
         id="path2889"
         style="fill:#ffffff;fill-opacity:1;fill-rule:nonzero;stroke:none"
         d="m 171.08996,698.67699 1.92153,0 0,4.36947 -1.92153,0 0,-4.36947 0,0 z" />
      <path
         id="path2891"
         style="fill:#ffffff;fill-opacity:1;fill-rule:evenodd;stroke:none"
         d="m 176.80609,700.30676 -1.9198,0 c 0.1156,-0.52468 0.35372,-0.84517 0.82821,-1.04798 0.46966,-0.19624 1.16877,-0.26476 2.18318,-0.26476 1.95822,0 2.73451,0.39731 2.73451,1.53563 l 0,1.84435 c 0,0.29349 0.0858,0.46792 0.17616,0.59355 l -1.96686,0 c -0.0367,-0.11213 -0.0602,-0.23811 -0.0685,-0.37724 -0.42951,0.36236 -1.08328,0.52987 -2.10427,0.5316 -1.29128,-0.002 -2.106,-0.31529 -2.106,-1.29267 0,-0.69912 0.54649,-1.14523 1.96653,-1.20061 l 1.62146,-0.0703 c 0.38417,-0.0218 0.51499,-0.1059 0.51499,-0.31529 0,-0.25161 -0.34575,-0.37067 -0.89224,-0.36894 -0.43573,-0.002 -0.87528,0.062 -0.96734,0.43262 l 0,0 0,0 m 1.90457,1.08986 0,-0.16786 c -0.32187,0.0623 -0.86662,0.10418 -1.55086,0.16128 -0.35371,0.0267 -0.52156,0.13048 -0.52295,0.3769 0.001,0.26511 0.2395,0.43262 0.714,0.43262 0.6472,0 1.36154,-0.14743 1.35981,-0.80294 l 0,0 0,0 z" />
    </g>
  </g>
</svg>
