<?xml version="1.0" encoding="UTF-8" standalone="no"?>
<!-- Created with Inkscape (http://www.inkscape.org/) -->

<svg
   xmlns:dc="http://purl.org/dc/elements/1.1/"
   xmlns:cc="http://creativecommons.org/ns#"
   xmlns:rdf="http://www.w3.org/1999/02/22-rdf-syntax-ns#"
   xmlns:svg="http://www.w3.org/2000/svg"
   xmlns="http://www.w3.org/2000/svg"
   xmlns:xlink="http://www.w3.org/1999/xlink"
   xmlns:sodipodi="http://sodipodi.sourceforge.net/DTD/sodipodi-0.dtd"
   xmlns:inkscape="http://www.inkscape.org/namespaces/inkscape"
   width="37.004337"
   height="37"
   id="svg2"
   version="1.1"
   inkscape:version="0.47 r22583"
   sodipodi:docname="icon_club-mate-obsolet_.svg"
   inkscape:export-filename="/home/tanjeff/matekate/icon_club-mate-obsolet_37x37@-12x-25.png"
   inkscape:export-xdpi="90"
   inkscape:export-ydpi="90">
  <defs
     id="defs4"><inkscape:perspective
   sodipodi:type="inkscape:persp3d"
   inkscape:vp_x="0 : 526.18109 : 1"
   inkscape:vp_y="0 : 1000 : 0"
   inkscape:vp_z="744.09448 : 526.18109 : 1"
   inkscape:persp3d-origin="372.04724 : 350.78739 : 1"
   id="perspective10" />
<inkscape:perspective
   id="perspective2845"
   inkscape:persp3d-origin="0.5 : 0.33333333 : 1"
   inkscape:vp_z="1 : 0.5 : 1"
   inkscape:vp_y="0 : 1000 : 0"
   inkscape:vp_x="0 : 0.5 : 1"
   sodipodi:type="inkscape:persp3d" />
<radialGradient
   r="296.69681"
   cy="393.79489"
   cx="216.7041"
   gradientUnits="userSpaceOnUse"
   id="radialGradient3414"
   xlink:href="#XMLID_1_"
   inkscape:collect="always" />
<filter
   id="filter3310"
   height="2.7256517"
   y="-0.86282587"
   width="1.1367007"
   x="-0.068350405"
   inkscape:collect="always"
   color-interpolation-filters="sRGB">
  <feGaussianBlur
     id="feGaussianBlur3312"
     stdDeviation="10.210732"
     inkscape:collect="always" />
</filter>
<radialGradient
   r="92.390625"
   fy="87.349915"
   fx="-409.76584"
   cy="87.349915"
   cx="-409.76584"
   gradientTransform="matrix(0.7807054,1.815188,-1.0895528,0.468612,5.3129276,789.46881)"
   gradientUnits="userSpaceOnUse"
   id="radialGradient3274"
   xlink:href="#linearGradient2847"
   inkscape:collect="always" />
<filter
   id="filter3266"
   height="1.263939"
   y="-0.13196953"
   width="1.2694513"
   x="-0.13472563"
   inkscape:collect="always"
   color-interpolation-filters="sRGB">
  <feGaussianBlur
     id="feGaussianBlur3268"
     stdDeviation="10.372821"
     inkscape:collect="always" />
</filter>
<radialGradient
   gradientUnits="userSpaceOnUse"
   gradientTransform="matrix(0.7807054,1.815188,-1.0895528,0.468612,5.3129276,789.46881)"
   r="92.390625"
   fy="87.349915"
   fx="-409.76584"
   cy="87.349915"
   cx="-409.76584"
   id="radialGradient2853"
   xlink:href="#linearGradient2847"
   inkscape:collect="always" />
<filter
   id="filter2827"
   inkscape:collect="always"
   color-interpolation-filters="sRGB">
  <feGaussianBlur
     id="feGaussianBlur2829"
     stdDeviation="3.4898235"
     inkscape:collect="always" />
</filter>

		
		
	<radialGradient
   gradientUnits="userSpaceOnUse"
   r="296.69681"
   cy="393.79489"
   cx="216.7041"
   id="XMLID_1_">
			<stop
   id="stop13"
   style="stop-color:#F4D708"
   offset="0" />

			<stop
   id="stop15"
   style="stop-color:#FCB400"
   offset="1" />

		</radialGradient>

	
		
	

		<linearGradient
   id="linearGradient2833">
  <stop
     id="stop2835"
     offset="0"
     style="stop-color:#ffea94;stop-opacity:1" />
  <stop
     style="stop-color:#f4c812;stop-opacity:1"
     offset="0.82237548"
     id="stop2841" />
  <stop
     id="stop2837"
     offset="1"
     style="stop-color:#f2c301;stop-opacity:1" />
</linearGradient>
<linearGradient
   id="linearGradient2847">
  <stop
     id="stop2849"
     offset="0"
     style="stop-color:#ffea95;stop-opacity:1;" />
  <stop
     style="stop-color:#ffea95;stop-opacity:0.49803922;"
     offset="0.6785714"
     id="stop2855" />
  <stop
     id="stop2851"
     offset="1"
     style="stop-color:#ffea95;stop-opacity:0;" />
</linearGradient>
<inkscape:perspective
   id="perspective3466"
   inkscape:persp3d-origin="224 : 144.33333 : 1"
   inkscape:vp_z="448 : 216.5 : 1"
   inkscape:vp_y="0 : 1000 : 0"
   inkscape:vp_x="0 : 216.5 : 1"
   sodipodi:type="inkscape:persp3d" />
<radialGradient
   inkscape:collect="always"
   xlink:href="#XMLID_1_"
   id="radialGradient3510"
   gradientUnits="userSpaceOnUse"
   cx="216.7041"
   cy="393.79489"
   r="296.69681" />
</defs>
  <sodipodi:namedview
     id="base"
     pagecolor="#ffffff"
     bordercolor="#666666"
     borderopacity="1.0"
     inkscape:pageopacity="0.0"
     inkscape:pageshadow="2"
     inkscape:zoom="7.919596"
     inkscape:cx="11.074288"
     inkscape:cy="24.001348"
     inkscape:document-units="px"
     inkscape:current-layer="g2929"
     showgrid="false"
     inkscape:window-width="1022"
     inkscape:window-height="680"
     inkscape:window-x="0"
     inkscape:window-y="0"
     inkscape:window-maximized="0"
     inkscape:snap-grids="false"
     inkscape:snap-page="true"
     inkscape:snap-bbox="true"
     inkscape:bbox-nodes="true"
     inkscape:bbox-paths="true"
     showguides="true"
     inkscape:guide-bbox="true">
    <sodipodi:guide
       orientation="1,0"
       position="11.995561,-0.25253814"
       id="guide3512" />
    <sodipodi:guide
       orientation="0,1"
       position="11.995561,11.869292"
       id="guide3514" />
  </sodipodi:namedview>
  <metadata
     id="metadata7">
    <rdf:RDF>
      <cc:Work
         rdf:about="">
        <dc:format>image/svg+xml</dc:format>
        <dc:type
           rdf:resource="http://purl.org/dc/dcmitype/StillImage" />
        <dc:title></dc:title>
      </cc:Work>
    </rdf:RDF>
  </metadata>
  <g
     inkscape:label="Layer 1"
     inkscape:groupmode="layer"
     id="layer1"
     transform="translate(-211.55529,-634.58055)">
    <g
       id="g3491"
       transform="matrix(0.0494346,0,0,0.0494346,226.38322,634.68173)">
      <path
         d="M 22.280271,396.83358 207.13227,28.031585 c 0,0 26.409,-31.5040001 52.815,0 26.408,31.506 180.192,370.653995 180.192,370.653995 0,0 3.105,18.534 -27.961,18.534 -31.066,0 -361.937999,0 -361.937999,0 0,0 -23.3,-0.002 -27.96,-20.386 z"
         id="path2181"
         style="opacity:0.28999999;fill:#000000;stroke:none;filter:url(#filter2827)" />
      <path
         style="fill:url(#radialGradient3510)"
         id="path17"
         d="M 8.551,390.497 193.403,21.695 c 0,0 26.409,-31.504 52.815,0 26.408,31.506 180.192,370.654 180.192,370.654 0,0 3.105,18.534 -27.961,18.534 -31.066,0 -361.938,0 -361.938,0 0,0 -23.3,-0.002 -27.96,-20.386 z" />
      <path
         style="fill:none;stroke:#e2a713;stroke-width:5"
         id="path19"
         d="M 8.551,390.497 193.403,21.695 c 0,0 26.409,-31.504 52.815,0 26.408,31.506 180.192,370.654 180.192,370.654 0,0 3.105,18.534 -27.961,18.534 -31.066,0 -361.938,0 -361.938,0 0,0 -23.3,-0.002 -27.96,-20.386 z" />
      <g
         transform="translate(611.70488,2.1121951)"
         id="g3270">
        <path
           sodipodi:type="inkscape:offset"
           inkscape:radius="-19.800472"
           inkscape:original="M -386.78125 10.875 C -394.47915 10.34197 -402.82267 12.896508 -408.46875 17.875 C -410.7164 19.85688 -522.43751 238.27376 -522.4375 240.6875 C -522.4375 241.16277 -519.17501 239.15343 -515.1875 236.21875 C -494.1524 220.73755 -469.87299 209.7095 -445.0625 204.34375 C -429.9802 201.0819 -402.15183 201.10147 -387.53125 204.375 C -373.32902 207.55487 -362.82798 211.42088 -343.4375 220.53125 C -334.3625 224.79503 -323.78751 229.46245 -319.9375 230.90625 C -302.0363 237.61949 -285.17114 239.52804 -278.71875 235.59375 C -273.57873 232.45968 -272.30962 229.6224 -272.125 220.875 L -271.96875 213.0625 L -319.78125 116.5625 C -355.96934 43.539862 -368.39425 19.38115 -370.78125 17.3125 C -372.51619 15.80894 -376.41251 13.6336 -379.4375 12.46875 C -381.73091 11.585615 -384.21528 11.052677 -386.78125 10.875 z "
           style="fill:url(#radialGradient3274);fill-opacity:1;filter:url(#filter3266)"
           id="path2845"
           d="m -392.0625,28.9375 c -0.11742,0.203563 -0.31734,0.564396 -0.59375,1.0625 0.51388,-0.669791 0.54211,-0.926287 0.59375,-1.0625 z m 5.65625,0.75 c 0.014,0.02393 0.22756,0.187236 0.25,0.21875 0.0299,0.04199 0.26557,0.255803 0.3125,0.3125 -0.0484,-0.07823 -0.21403,-0.349884 -0.25,-0.40625 -0.0123,-0.01933 -0.0164,0.01854 -0.0313,0 -0.15726,-0.196483 -0.42436,-0.369706 -0.28125,-0.125 z m -1.75,0.9375 c -1.7271,-0.11959 -3.94648,0.620202 -5.5625,1.34375 -0.79349,1.461934 -1.60728,2.945884 -2.8125,5.21875 -3.21764,6.068009 -7.7447,14.756768 -13.125,25.125 -10.76059,20.736463 -24.90771,48.26172 -39,75.8125 -10.20669,19.95435 -19.15397,37.57769 -27.96875,54.96875 8.96233,-3.34556 18.10358,-6.08863 27.375,-8.09375 20.01668,-4.32901 46.19959,-4.37779 66.03125,0.0625 15.51059,3.47281 28.25809,8.19892 48.1875,17.5625 8.75027,4.11121 20.1561,9.0468 22.03125,9.75 7.61402,2.85538 15.01089,4.59964 20.1875,5.1875 0.36469,0.0414 0.62632,-0.0161 0.96875,0 l 0,-0.0313 -45.6875,-92.1875 C -355.61072,88.861851 -367.73747,64.600518 -375.5625,49.375 c -3.91252,-7.612759 -6.77613,-12.972916 -8.625,-16.28125 -0.31728,-0.567729 -0.40091,-0.683426 -0.65625,-1.125 -0.69417,-0.430324 -1.4985,-0.946438 -1.71875,-1.03125 -0.31134,-0.119888 -0.87117,-0.262466 -1.59375,-0.3125 z"
           transform="translate(-6.3365854,-7.3926829)" />
      </g>
      <path
         id="path25"
         d="m 212.496,292.632 c -13.168,-79.969 -19.75,-123.121 -19.75,-129.453 0,-7.703 2.551,-13.926 7.66,-18.676 5.105,-4.746 10.871,-7.121 17.293,-7.121 6.949,0 12.82,2.535 17.609,7.598 4.789,5.063 7.188,11.023 7.188,17.883 0,6.543 -6.668,49.801 -20,129.77 h -10 z m 27,38.172 c 0,6.098 -2.156,11.301 -6.469,15.613 -4.313,4.309 -9.461,6.465 -15.453,6.465 -6.098,0 -11.301,-2.156 -15.613,-6.465 -4.313,-4.313 -6.465,-9.516 -6.465,-15.613 0,-5.992 2.152,-11.141 6.465,-15.453 4.313,-4.312 9.516,-6.469 15.613,-6.469 5.992,0 11.141,2.156 15.453,6.469 4.312,4.313 6.469,9.461 6.469,15.453 z" />
      <path
         transform="translate(389.7,10.560978)"
         sodipodi:type="inkscape:offset"
         inkscape:radius="-10.555089"
         inkscape:original="M -245.5 347.59375 C -255.30594 347.61228 -265.3806 348.26892 -276.3125 349.46875 C -303.59685 352.46334 -329.17586 359.91429 -350.8125 371.1875 C -358.78876 375.34333 -362.09366 377.67406 -364.5625 380.9375 C -368.56226 386.22458 -369.01864 391.26478 -365.5625 391.96875 C -363.15211 392.45969 -270.6159 396.43179 -249.8125 396.9375 C -222.99401 397.58942 -86.051599 396.62267 -63.8125 395.625 C -33.79685 394.27845 10.248421 391.67597 16.5625 390.875 L 21.4375 390.25 L 20.8125 384.15625 C 19.63891 372.87821 15.07248 361.80518 9.15625 355.8125 C 5.23832 351.84394 3.6797201 351.73716 1.8125 355.3125 C -1.89313 362.40797 -13.13747 371.54674 -24.40625 376.65625 C -36.45728 382.12044 -46.383363 383.93418 -64.8125 383.96875 C -90.3477 384.01664 -106.03808 380.74699 -148.8125 366.53125 C -189.10294 353.14104 -216.08219 347.53817 -245.5 347.59375 z "
         style="fill:#ffea96;fill-opacity:1;filter:url(#filter3310)"
         id="path3280"
         d="m -245.46875,358.15625 c -9.3484,0.0177 -19.03954,0.64383 -29.6875,1.8125 -26.10809,2.86549 -50.47761,10.01506 -70.78125,20.59375 -1.58594,0.82631 -2.02349,1.16543 -3.125,1.78125 0.0767,0.004 0.11035,-0.004 0.1875,0 9.30902,0.44787 21.74516,1.00426 34.75,1.5625 26.00967,1.11649 54.45188,2.22297 64.5625,2.46875 17.48816,0.42511 77.9404,0.0456 127.34375,-0.5 -8.6414,-2.45831 -18.26541,-5.43337 -29.9375,-9.3125 -39.78844,-13.22337 -65.24708,-18.45927 -93.3125,-18.40625 z M 5.1875,368.6875 c -4.74259201,5.35833 -10.8577225,9.83254 -17.5625,13.59375 10.7270878,-0.65901 17.7762998,-1.1374 21.84375,-1.46875 -0.9779976,-4.53727 -2.5265245,-8.7509 -4.28125,-12.125 z" />
    </g>
    <g
       id="g2929"
       transform="matrix(0.08118905,0,0,0.08118905,194.37932,617.05556)">
      <path
         id="path2853"
         style="fill:#d9261c;fill-opacity:1;fill-rule:evenodd;stroke:none"
         d="m 358.86829,390.05168 c 74.172,0 134.66625,60.49387 134.66625,134.66587 0,74.1725 -60.49425,134.66625 -134.66625,134.66625 -74.17238,0 -134.66625,-60.49375 -134.66625,-134.66625 0,-74.172 60.49387,-134.66587 134.66625,-134.66587 z m -35.8455,4.45224 9.5545,-13.89725 12.44975,9.844 8.97525,-10.7125 7.52775,9.84375 14.47612,-10.7125 5.501,12.73925 15.0555,-8.68575 5.2115,14.18675 17.082,-4.34275 1.15788,11.581 14.47662,-4.6325 2.60575,14.766 13.31813,-3.764 -0.57925,14.766 15.0555,-2.02675 -0.8685,16.21338 17.082,-0.86838 -5.501,12.44938 11.58087,4.343 -3.76362,11.581 15.34462,4.0535 -8.97525,10.42262 14.76613,6.36975 -10.423,9.84375 13.02862,6.94875 -10.42287,6.65925 7.81725,7.5275 -10.13363,7.52775 9.84413,9.5545 -9.84413,7.52738 8.97525,10.423 -10.423,3.47462 7.52775,11.00188 -12.44937,3.47425 6.36937,11.87037 -11.58087,0.86888 4.05312,14.18675 -14.76562,2.60562 0.8685,15.34475 -11.8705,1.15825 0,14.18675 -11.87075,0 -2.60575,14.18663 -15.34463,-6.07988 -0.28987,17.08188 -14.18663,-6.08 -5.2115,13.31825 -15.34475,-9.55413 -7.52775,13.31826 -11.87075,-8.39663 -11.002,11.58125 -11.58087,-8.9755 -13.31825,8.39625 -9.26475,-10.42263 -11.87075,6.36938 -8.10675,-12.16025 -16.21338,4.0535 1.15825,-13.31825 -17.95075,3.47425 0.2895,-14.18663 -13.31825,5.2115 0,-16.503 -17.37137,-1.73725 5.2115,-10.423 -14.766,-2.31587 4.6325,-13.02875 -13.31825,-1.44788 5.7905,-12.44937 -13.02875,-3.47463 8.10675,-11.29137 -13.60775,-2.02675 8.39625,-8.39625 -10.42263,-5.501 8.68563,-9.84363 -10.423,-6.36987 10.1335,-6.36938 -12.16025,-8.68575 13.02875,-8.10675 -9.844,-10.1335 10.423,-3.18475 -5.7905,-9.844 7.81725,-2.31625 -5.501,-10.7125 10.423,-3.47412 -2.89525,-14.47625 11.2915,-0.57938 -4.343,-15.34462 14.766,-0.2895 0.579,-16.50288 12.15987,2.31588 1.44775,-13.60775 13.60775,1.15837 1.44775,-13.02875 12.739,4.6325 2.31625,-13.60775 13.60763,5.501 7.23837,-12.16025" />
      <path
         id="path2855"
         style="fill:#ffffff;fill-opacity:1;fill-rule:evenodd;stroke:none"
         d="m 359.35804,390.5588 c 74.17237,0 134.66612,60.49413 134.66612,134.66625 0,74.17237 -60.49375,134.66613 -134.66612,134.66613 -74.1725,0 -134.66625,-60.49375 -134.66625,-134.66613 0,-74.17212 60.49375,-134.66625 134.66625,-134.66625" />
      <path
         id="path2857"
         style="fill:#193882;fill-opacity:1;fill-rule:evenodd;stroke:none"
         d="m 489.69716,525.22505 c 0,71.62825 -58.6645,130.29237 -130.38562,130.29237 -71.62825,0 -130.29238,-58.66412 -130.29238,-130.29237 0,-71.628 58.66413,-130.292 130.29238,-130.292 71.72112,0 130.38562,58.664 130.38562,130.292 z m -6.249,0 c 0,42.24925 -21.358,79.83563 -53.9075,102.21938 -5.22287,-9.41988 -9.41987,-13.15063 -11.845,-23.87625 4.85013,-1.67875 7.18163,-2.14513 11.65825,-4.66325 2.14513,-1.119 4.10388,-3.07775 3.35763,-6.52863 -0.65275,-2.61137 0.37312,-5.78225 1.8655,-7.64787 1.772,-2.14513 2.51787,-4.1035 1.58537,-6.5285 -0.74625,-1.86525 -0.18637,-4.47663 1.67875,-5.40925 4.66338,-2.33188 1.67888,-6.90163 4.66338,-10.81875 2.51825,-3.2645 5.59587,-7.08838 2.14512,-10.72563 2.425,-10.3525 3.63713,-15.48212 6.06225,-25.83462 -0.74625,-0.27988 -1.11937,-0.46625 -1.86525,-0.74613 -2.425,10.16613 -3.73075,15.20213 -6.15575,26.20763 -4.01037,1.30575 -5.596,3.45087 -8.487,7.27487 -5.03637,6.80838 -11.565,10.7255 -20.61175,11.93775 0.18638,-5.40925 0.93263,-16.228 3.91713,-45.60662 l -1.02613,-0.18675 c -1.86512,13.8965 -2.70462,20.79812 -4.56975,34.60137 -6.8085,6.34225 -10.16612,9.5135 -16.97462,15.76213 -10.3525,-14.5495 -17.72038,-24.80888 -28.91225,-33.4825 3.17125,-9.23313 4.66325,-13.80325 7.36787,-22.29025 -3.8235,0.18637 -4.01025,9.4195 -7.741,11.93775 -1.49212,1.02612 -2.14512,2.89137 -2.23837,5.40962 -0.18638,3.17088 -0.2795,4.84963 -0.37313,8.02063 -0.2795,4.7565 -5.316,5.12962 -6.15537,1.02612 -0.93263,-4.19712 -1.39888,-6.249 -2.3315,-10.25925 -10.446,0.46625 -14.8295,-7.08812 -11.93813,-14.36287 4.197,1.49212 15.20225,2.70462 13.98975,-1.39925 -5.31612,0.18675 -13.05712,0.55987 -11.28512,-2.14513 1.30575,-1.30562 2.14512,-2.0515 3.82387,-3.63712 3.45088,1.02575 6.43538,0.74612 10.81888,1.2125 1.30562,4.38337 6.71525,1.492 9.2335,-3.07775 -6.34225,0 -10.81888,0.18637 -17.161,0.5595 -0.37313,-1.95875 -0.37313,-3.63763 0.5595,-5.596 -1.39888,0.28 -2.05188,0.46637 -3.45088,0.74625 -2.51812,1.21212 -3.07762,-0.74625 -2.3315,-3.45075 1.21225,-4.19713 0.74588,-7.92788 1.58538,-12.68438 0.653,-4.29025 4.47687,-3.824 6.15575,-1.119 3.45087,5.316 11.4715,4.94288 19.2125,0.37275 2.23837,-1.39887 4.197,-0.0931 5.22287,1.4925 1.77238,2.89125 4.01063,6.15538 1.49238,9.793 -2.05188,3.07763 -2.33175,6.5285 -0.5595,10.25888 7.55437,15.57562 21.54437,2.33187 12.684,-15.0155 23.13,-6.15575 36.18712,-8.86038 55.49312,-23.13 3.2645,-2.425 7.9275,-7.55463 -3.91712,-6.15538 -19.58588,2.3315 -31.15088,3.91713 -51.576,10.44563 -35.34763,11.28512 -56.51888,9.97937 -93.54538,6.06225 9.32625,-3.17088 13.8965,-4.7565 23.12963,-8.021 36.56012,1.4925 57.73175,-3.45075 88.88237,-11.565 -9.97937,0.28 -14.92262,0.46662 -24.99512,0.8395 -5.50275,-25.92788 -8.5805,-40.47738 -16.3215,-63.79375 63.51375,5.22287 113.69087,58.85075 113.69087,123.57712 z m -231.57887,61.6485 c -10.63238,-18.18675 -16.69463,-39.26475 -16.69463,-61.6485 0,-56.61212 38.51888,-104.73738 90.74763,-119.38013 -3.544,24.52888 -5.596,39.358 -4.84975,65.7525 -24.249,4.56975 -35.814,6.06225 -57.54513,12.49763 -9.97925,2.89087 -11.285,6.5285 -2.89125,8.67362 18.46663,4.56975 33.8555,4.197 55.02688,5.316 0.27987,2.51825 0.46625,3.73075 0.74612,6.1555 -15.01575,9.88613 3.07775,32.7365 9.60625,9.04713 3.54438,4.4765 5.0365,9.04675 3.91713,15.20212 -0.55938,2.89138 -3.264,6.8085 -7.741,4.29025 -2.70463,-1.58562 -6.5285,-2.70462 -9.97938,0 -4.1035,3.17088 -5.40925,4.56988 -9.97937,8.86 -5.316,4.75663 -11.565,4.01076 -18.46663,11.09875 -13.15025,13.52376 -19.58562,20.89175 -31.89687,34.13513 z m 65.28612,-79.55537 c -4.197,3.91712 -4.57012,8.30062 -3.17125,11.19187 1.02613,2.3315 3.824,3.26413 5.50275,1.58525 2.33188,-2.3315 3.07775,-4.84962 3.91713,-8.11412 -2.14513,-1.39888 -3.91713,-3.45088 -6.24863,-4.663 z m 21.63763,-10.53925 c -2.42513,-1.58563 -3.171,-3.544 -5.96913,-3.91713 -5.78225,-0.74612 -9.14,3.07775 -6.15537,8.48738 1.39887,2.70462 2.42462,4.197 5.12962,5.40912 2.14513,0.933 3.45075,1.11938 4.84975,-2.14512 1.30563,-3.07763 -1.30575,-6.5285 2.14513,-7.83425 z m 44.02125,9.2335 c 2.705,0 4.66337,-3.26438 6.52862,-5.969 2.70488,2.70462 2.70488,5.596 2.33175,9.41987 -0.46625,4.663 -6.34212,7.27475 -7.64787,4.47663 -1.30563,-2.79775 -1.39888,-5.22288 -1.2125,-7.9275 z m -39.63788,1.67887 c -0.93262,1.39888 -2.51825,2.3315 -4.01037,2.3315 -1.49238,0 0,-1.95875 0.74625,-3.07775 1.30575,-1.95875 1.95837,-2.70487 3.45087,-2.70487 1.49213,0 0.65263,2.33175 -0.18675,3.45112 z m 88.88238,15.20225 c 0,1.11887 -0.83938,1.95838 -1.8655,1.95838 -1.119,0 -1.95838,-0.83951 -1.95838,-1.95838 0,-1.02612 0.83938,-1.86563 1.95838,-1.86563 1.02612,0 1.8655,0.83951 1.8655,1.86563 z m 10.81887,-0.18675 c 0,1.11925 -0.8395,1.95875 -1.95875,1.95875 -1.02575,0 -1.86525,-0.8395 -1.86525,-1.95875 0,-1.02588 0.8395,-1.95838 1.86525,-1.95838 1.11925,0 1.95875,0.9325 1.95875,1.95838 z m -3.45087,7.741 c 0,0.74625 -0.653,1.30575 -1.39888,1.30575 -0.74625,0 -1.30575,-0.5595 -1.30575,-1.30575 0,-0.74588 0.5595,-1.39888 1.30575,-1.39888 0.74588,0 1.39888,0.653 1.39888,1.39888 z m -6.90163,-0.37275 c 0,0.65275 -0.653,1.30575 -1.39887,1.30575 -0.74625,0 -1.30613,-0.653 -1.30613,-1.30575 0,-0.74625 0.55988,-1.39925 1.30613,-1.39925 0.74587,0 1.39887,0.653 1.39887,1.39925 z m -7.74112,-1.39925 c 0,0.653 -0.55975,1.2125 -1.11925,1.2125 -0.65275,0 -1.2125,-0.5595 -1.2125,-1.2125 0,-0.65263 0.55975,-1.119 1.2125,-1.119 0.5595,0 1.11925,0.46638 1.11925,1.119 z m -1.39888,8.67375 c 0,0.74613 -0.55987,1.39925 -1.306,1.39925 -0.74587,0 -1.30575,-0.65312 -1.30575,-1.39925 0,-0.74587 0.55988,-1.30575 1.30575,-1.30575 0.74613,0 1.306,0.55988 1.306,1.30575 z m 8.86013,1.02612 c 0,0.9325 -0.74625,1.67876 -1.67888,1.67876 -1.02575,0 -1.772,-0.74625 -1.772,-1.67876 0,-1.02612 0.74625,-1.77199 1.772,-1.77199 0.93263,0 1.67888,0.74587 1.67888,1.77199 z m 4.84962,4.01026 c 0,0.65299 -0.65262,1.30575 -1.30562,1.30575 -0.74588,0 -1.399,-0.65276 -1.399,-1.30575 0,-0.74626 0.65312,-1.39888 1.399,-1.39888 0.653,0 1.30562,0.65262 1.30562,1.39888 z m -10.16575,0.93262 c 0,1.11938 -0.9325,1.95875 -1.95875,1.95875 -1.02575,0 -1.86512,-0.83937 -1.86512,-1.95875 0,-1.02575 0.83937,-1.86525 1.86512,-1.86525 1.02625,0 1.95875,0.8395 1.95875,1.86525 z m 5.31613,3.82387 c 0,0.83951 -0.65275,1.58563 -1.49213,1.58563 -0.83937,0 -1.58562,-0.74612 -1.58562,-1.58563 0,-0.83937 0.74625,-1.49199 1.58562,-1.49199 0.83938,0 1.49213,0.65262 1.49213,1.49199 z m -6.90175,2.89138 c 0,1.02575 -0.74613,1.772 -1.67875,1.772 -0.93263,0 -1.772,-0.74625 -1.772,-1.772 0,-0.93263 0.83937,-1.67875 1.772,-1.67875 0.93262,0 1.67875,0.74612 1.67875,1.67875 z m 5.96912,4.01037 c 0,0.9325 -0.65312,1.58563 -1.4925,1.58563 -0.93262,0 -1.58525,-0.65312 -1.58525,-1.58563 0,-0.83949 0.65263,-1.49212 1.58525,-1.49212 0.83938,0 1.4925,0.65263 1.4925,1.49212 z m -5.78237,4.84963 c 0,0.65312 -0.46663,1.11938 -1.11925,1.11938 -0.65313,0 -1.11938,-0.46625 -1.11938,-1.11938 0,-0.65263 0.46625,-1.11887 1.11938,-1.11887 0.65262,0 1.11925,0.46624 1.11925,1.11887 z m -41.78338,33.85563 c -0.5595,9.04675 0,15.20225 1.02613,24.62212 0.37312,4.10388 3.45087,4.94325 5.96912,1.02613 2.0515,-3.2645 2.891,-5.03651 5.12963,-8.11413 1.772,-2.33187 3.07775,-5.68913 7.55425,-6.15587 9.60637,-0.9325 17.161,-3.82351 24.249,-6.5285 2.9845,-1.119 3.2645,-3.63725 2.51825,-6.90163 -0.83938,-3.35737 -2.51825,-4.66338 -4.29025,-7.74112 -1.39888,-2.61138 0.37312,-5.03613 2.14512,-6.15538 8.30088,-5.22288 11.19188,-12.31125 16.13513,-19.95875 3.35775,-5.12963 -2.9845,-4.19713 -4.38338,-3.07775 -3.07775,2.42475 -4.38375,4.663 -6.71525,7.83425 -1.58562,2.14512 -3.91712,3.35763 -6.52862,5.596 -6.62163,2.3315 -9.88613,3.45075 -16.41463,5.78225 -0.74625,0.28 -1.4925,-1.58562 -0.74625,-1.95837 1.02575,-0.46625 2.3315,0 2.51825,-1.11925 0.27988,-2.70463 0.46625,-4.10388 0.74613,-6.71538 0.0933,-1.11887 -1.67875,-1.95837 -2.51813,-1.21212 -4.66337,4.38337 -6.90175,6.62175 -11.565,11.00512 -1.86525,1.772 -2.51825,2.89138 -4.01037,5.0365 -4.29025,5.8755 -6.43538,8.86 -10.81913,14.73588" />
      <path
         id="path2859"
         style="fill:none;stroke:#1f1917;stroke-width:3.32557178;stroke-linecap:butt;stroke-linejoin:miter;stroke-miterlimit:10;stroke-opacity:1;stroke-dasharray:none"
         d="m 359.04654,389.67368 c 74.49162,0 135.24762,60.75562 135.24762,135.24762 0,74.492 -60.756,135.24775 -135.24762,135.24775 -74.492,0 -135.248,-60.75575 -135.248,-135.24775 0,-74.492 60.756,-135.24762 135.248,-135.24762 z"
         inkscape:export-filename="/home/tanjeff/matekate/icon_club-mate-obsolet_37x37@-12x-25.png"
         inkscape:export-xdpi="1199"
         inkscape:export-ydpi="1199" />
    </g>
  </g>
</svg>
